<?xml version="1.0" encoding="utf-8" ?>
<svg baseProfile="full" height="200mm" version="1.1" viewBox="0,0,200,200" width="200mm" xmlns="http://www.w3.org/2000/svg" xmlns:ev="http://www.w3.org/2001/xml-events" xmlns:xlink="http://www.w3.org/1999/xlink"><defs /><rect fill="#1a1a1a" height="200" width="200" x="0" y="0" /><text alignment-baseline="middle" fill="#e1ed5e" style="dominant-baseline: central; font-size:9.0px; font-family:Arial;" text-anchor="middle" x="100.0" y="100.0">2020</text><line stroke="#e1ed5e" stroke-width="0.3" x1="100.0" x2="100.0" y1="15.0" y2="10.0" /><path d="M 100.0 14.0 a86.0,86.0 0 0,1 42.35913384403234,11.155469271406648" fill="none" id="id25" stroke="none" /><text fill="#e1ed5e" style="font-size:6.75px; font-family:Arial;" text-anchor="middle"><textPath startOffset="22.145653131862478" xlink:href="#id25">January</textPath></text><path d="M 101.44090949804482 79.04949213459386 l 4.316817536900434 -62.76557957531267 a83.91385295045757,83.91385295045757 0 0,0 1.4362495484888669,0.11117479853002073 l -5.3936360801645336 62.682227009787596" fill="#4dd3ff" stroke="none" /><path d="M 103.94208987418118 79.37332000966035 l 6.978581317184091 -36.514886319282255 a58.17576522562322,58.17576522562322 0 0,0 0.9793017840087501,0.19588778374779411 l -7.604379586723798 36.3897091388716" fill="#78ff26" stroke="none" /><line stroke="#e1ed5e" stroke-width="0.3" x1="143.13028292997686" x2="145.6673583964461" y1="26.7553504044142" y2="22.446841604673864" /><path d="M 143.63769802327073 25.89364864446614 a86.0,86.0 0 0,1 29.32050498858742,28.57503671076992" fill="none" id="id26" stroke="none" /><text fill="#e1ed5e" style="font-size:6.75px; font-family:Arial;" text-anchor="middle"><textPath startOffset="20.669276256404974" xlink:href="#id26">February</textPath></text><line stroke="#e1ed5e" stroke-width="0.3" x1="172.87174338648825" x2="177.1583165268699" y1="56.24261187166439" y2="53.66864786411523" /><path d="M 173.72905801456457 55.72781907015455 a86.0,86.0 0 0,1 12.242430191666344,42.057860355516425" fill="none" id="id27" stroke="none" /><text fill="#e1ed5e" style="font-size:6.75px; font-family:Arial;" text-anchor="middle"><textPath startOffset="22.145653131862474" xlink:href="#id27">March</textPath></text><line stroke="#e1ed5e" stroke-width="0.3" x1="184.99686870605535" x2="189.99668451229388" y1="99.2704041080226" y2="99.22748670261217" /><path d="M 185.99683186730306 99.26182062694052 a86.0,86.0 0 0,1 -10.086455211305974,41.156179273409016" fill="none" id="id28" stroke="none" /><text fill="#e1ed5e" style="font-size:6.75px; font-family:Arial;" text-anchor="middle"><textPath startOffset="21.40746469413373" xlink:href="#id28">April</textPath></text><line stroke="#e1ed5e" stroke-width="0.3" x1="174.33088141563837" x2="178.70328620479359" y1="141.23008692659167" y2="143.65538615756765" /><path d="M 175.20536237346943 141.71514677278685 a86.0,86.0 0 0,1 -30.301960400862466,31.63118572779886" fill="none" id="id29" stroke="none" /><text fill="#e1ed5e" style="font-size:6.75px; font-family:Arial;" text-anchor="middle"><textPath startOffset="22.145653131862474" xlink:href="#id29">May</textPath></text><line stroke="#e1ed5e" stroke-width="0.3" x1="143.1302829299769" x2="145.6673583964461" y1="173.24464959558577" y2="177.55315839532614" /><path d="M 143.63769802327073 174.10635135553383 a86.0,86.0 0 0,1 -40.685524379131806,11.842963189579606" fill="none" id="id30" stroke="none" /><text fill="#e1ed5e" style="font-size:6.75px; font-family:Arial;" text-anchor="middle"><textPath startOffset="21.407464694133747" xlink:href="#id30">June</textPath></text><line stroke="#e1ed5e" stroke-width="0.3" x1="101.45913802915013" x2="101.54496967792366" y1="184.9874750549273" y2="189.98673829345242" /><path d="M 101.47630435890484 185.9873277026323 a86.0,86.0 0 0,1 -42.54439059252881,-10.42667462771756" fill="none" id="id31" stroke="none" /><text fill="#e1ed5e" style="font-size:6.75px; font-family:Arial;" text-anchor="middle"><textPath startOffset="22.145653131862474" xlink:href="#id31">July</textPath></text><line stroke="#e1ed5e" stroke-width="0.3" x1="58.13341422392154" x2="55.670673884152215" y1="173.97424548756322" y2="178.32567169271397" /><path d="M 57.64086615596767 174.84453072859336 a86.0,86.0 0 0,1 -31.369924170532244,-30.572349798747886" fill="none" id="id32" stroke="none" /><text fill="#e1ed5e" style="font-size:6.75px; font-family:Arial;" text-anchor="middle"><textPath startOffset="22.145653131862474" xlink:href="#id32">August</textPath></text><path d="M 86.96720088162412 116.46651593811092 l -21.253867416777073 26.853567172028157 a55.24676554118018,55.24676554118018 0 0,0 -0.7385946126690381,-0.5949595375968242 l 21.711712799801372 -26.484759340637922" fill="#9fff22" stroke="none" /><path d="M 85.86807049272751 115.53346607816431 l -14.288009511297274 15.705025343779875 a42.23193436415273,42.23193436415273 0 0,0 -0.5320625015513053,-0.4924691082039586 l 14.555501784162546 -15.457438489443536" fill="#ffa20f" stroke="none" /><path d="M 85.08716467003676 114.78537596483093 l -19.6845661676353 19.5163230233158 a48.71946986431051,48.71946986431051 0 0,0 -0.5837362694664717,-0.5989648368311755 l 20.01668923825258 -19.175535494416888" fill="#faff18" stroke="none" /><path d="M 84.58840730492382 114.26474011684316 l -12.109455920081952 11.208331615948076 a37.50047333543705,37.50047333543705 0 0,0 -0.4332238595568956,-0.4761889113029733 l 12.300077480480729 -10.99880512908743" fill="#ff5507" stroke="none" /><path d="M 83.4222238831116 112.89097897827486 l -33.79376261126511 26.27823420626557 a63.80845692647523,63.80845692647523 0 0,0 -0.6649692679253614,-0.8704661175145731 l 34.239883856544765 -25.694247175510128" fill="#34ff2f" stroke="none" /><path d="M 82.576782715395 111.72311816256416 l -28.848097536233013 19.41028747206505 a55.77027453455349,55.77027453455349 0 0,0 -0.5276281230808282,-0.7988962271689689 l 29.17705009823457 -18.91221136655702" fill="#98ff23" stroke="none" /><path d="M 81.99639281039703 110.81064883170646 l -23.951785393299513 14.382358937984984 a48.938150836225944,48.938150836225944 0 0,0 -0.4262892555038335,-0.7239323515784429 l 24.195148358933118 -13.969075418112984" fill="#f6ff19" stroke="none" /><line stroke="#e1ed5e" stroke-width="0.3" x1="26.387840678322732" x2="22.057713659400548" y1="142.50000000000003" y2="145.00000000000006" /><path d="M 25.521815274538298 143.00000000000003 a86.0,86.0 0 0,1 -11.493303480769221,-40.785679425670985" fill="none" id="id33" stroke="none" /><text fill="#e1ed5e" style="font-size:6.75px; font-family:Arial;" text-anchor="middle"><textPath startOffset="21.40746469413373" xlink:href="#id33">September</textPath></text><path d="M 81.81346652052679 110.50000000000001 l -28.694435909550656 16.566740296623554 a54.13348059324708,54.13348059324708 0 0,0 -0.4577285708868288,-0.8087625260524695 l 28.97459784545886 -16.071721000471964" fill="#aeff20" stroke="none" /><path d="M 81.63589988554817 110.18625677009913 l -28.97459784545886 16.071721000471964 a54.13348059324708,54.13348059324708 0 0,0 -0.44377763931598996,-0.8165008726242058 l 29.24622083439018 -15.571965294373172" fill="#aeff20" stroke="none" /><path d="M 81.4637452351635 109.86951160357371 l -29.24622083439018 15.571965294373172 a54.13348059324708,54.13348059324708 0 0,0 -0.4296959244378793,-0.8239985926409928 l 29.50922482780301 -15.067620458627674" fill="#aeff20" stroke="none" /><path d="M 81.29705330413844 109.54985784667822 l -14.12901684755208 7.2143766755909295 a36.8643105080467,36.8643105080467 0 0,0 -0.28294251271792586,-0.5660745611110897 l 14.250779273481742 -6.9707702583160875" fill="#ff4b06" stroke="none" /><path d="M 80.9802524753101 108.90220220490707 l -17.52529592050947 8.202723394865467 a40.349952666456296,40.349952666456296 0 0,0 -0.28824379725388566,-0.6298647167228651 l 17.66352418261841 -7.900669695927913" fill="#ff840c" stroke="none" /><path d="M 80.83023694016515 108.57439118712176 l -11.263521242477907 5.038029785554033 a33.338908172925215,33.338908172925215 0 0,0 -0.22919089289133293,-0.5244336153227189 l 11.348346017386207 -4.8439341004554635" fill="#ff0e01" stroke="none" /><path d="M 80.41425534168474 107.57618678355246 l -21.748890960117205 8.412938242764632 a44.3193436415273,44.3193436415273 0 0,0 -0.26838383927076437,-0.7119200195839567 l 21.890105483202404 -8.03834994298653" fill="#ffc312" stroke="none" /><path d="M 80.28708602549918 107.23885506374661 l -22.05806025673081 8.10002526224218 a44.49826443673083,44.49826443673083 0 0,0 -0.257157228827681,-0.7193145370470534 l 22.193857655602436 -7.720175768814205" fill="#ffc512" stroke="none" /><path d="M 79.94057633289273 106.21446072829308 l -39.549157170112395 12.252429987496113 a62.40359734932155,62.40359734932155 0 0,0 -0.3082252743849225,-1.0259816935898254 l 39.75365876450095 -11.571710690315562" fill="#44ff2d" stroke="none" /><path d="M 79.83685265289637 105.86919833188381 l -31.813107205906647 9.260331858447154 a54.13348059324708,54.13348059324708 0 0,0 -0.25205968388854416,-0.8944708960670362 l 31.967385381869768 -8.712853038477123" fill="#aeff20" stroke="none" /><path d="M 79.73907114497094 105.5222062557868 l -40.42595555391251 11.01827395245817 a62.90059955822026,62.90059955822026 0 0,0 -0.2749969858635147,-1.0442083472683308 l 40.609142020580755 -10.322685100817035" fill="#3eff2d" stroke="none" /><path d="M 79.56144815229197 104.8234425847677 l -37.93611927050131 8.952820853140938 a59.97822656989587,59.97822656989587 0 0,0 -0.22788623920528916,-1.0041088177714967 l 38.08421637126427 -8.300277701430415" fill="#62ff29" stroke="none" /><path d="M 79.407916724674 104.11899336999214 l -20.01376348627456 4.00331321539154 a41.4102240454402,41.4102240454402 0 0,0 -0.13344682850388181,-0.6982501959945779 l 20.0795366070606 -3.6591604543636476" fill="#ff950d" stroke="none" /><path d="M 79.34024301695615 103.76489593502545 l -53.45850655126523 9.741920690188932 a75.33890817292522,75.33890817292522 0 0,0 -0.2209409718935904,-1.2743288131037493 l 53.61786234065106 -8.82279884416459" fill="#40ffc7" stroke="none" /><path d="M 79.2786578344484 103.40968896794605 l -34.64890884672072 5.701464765271726 a56.11486273272325,56.11486273272325 0 0,0 -0.1482461358703536,-0.951846536890021 l 34.741676474729346 -5.105830046450254" fill="#93ff23" stroke="none" /><path d="M 79.06263194458094 101.62068470465958 l -32.823239034181725 2.5407262899175667 a53.9214263174503,53.9214263174503 0 0,0 -0.06351440454397515,-0.9234855025737166 l 32.86201739989077 -1.9768973631895064" fill="#b0ff20" stroke="none" /><path d="M 79.03789590574601 101.26102812881392 l -33.14645112537291 1.9940081898032642 a54.20637425055222,54.20637425055222 0 0,0 -0.04790400701963886,-0.9293249385226706 l 33.175796721849125 -1.424711457903863" fill="#adff20" stroke="none" /><path d="M 79.00696218219943 100.54070618675478 l -33.18874075960268 0.854824233398988 a54.19974755443358,54.19974755443358 0 0,0 -0.015972325955983135,-0.9303079123663998 l 33.198524517157324 -0.2849694050635359" fill="#adff20" stroke="none" /><line stroke="#e1ed5e" stroke-width="0.3" x1="15.003131293944662" x2="10.003315487706104" y1="100.72959589197737" y2="100.7725132973878" /><path d="M 14.003168132696942 100.73817937305945 a86.0,86.0 0 0,1 10.791469493833604,-42.453326145846276" fill="none" id="id34" stroke="none" /><text fill="#e1ed5e" style="font-size:6.75px; font-family:Arial;" text-anchor="middle"><textPath startOffset="22.145653131862435" xlink:href="#id34">October</textPath></text><path d="M 79.34024301695615 96.23510406497455 l -14.512028729648344 -2.6445750556537218 a35.751025560113604,35.751025560113604 0 0,0 0.11520973592229439,-0.6028260213459351 l 14.464492701443891 2.8933036420329716" fill="#ff3805" stroke="none" /><path d="M 79.407916724674 95.88100663000787 l -26.167345960788207 -5.23420205142263 a47.685705269801204,47.685705269801204 0 0,0 0.16745014607379505,-0.801309566598358 l 26.073638103890044 5.682628069306397" fill="#fff517" stroke="none" /><path d="M 79.48165901384962 95.52812308129327 l -28.55992492581549 -6.224502710134224 a50.23035657936258,50.23035657936258 0 0,0 0.19084937500565605,-0.8409175603478442 l 28.448864689252172 6.713854604421075" fill="#e4ff1a" stroke="none" /><path d="M 80.05021161711548 93.44210830539832 l -32.82996100244329 -10.791860267386488 a55.558220258756705,55.558220258756705 0 0,0 0.3056087805418973,-0.9034780565505298 l 32.639866800329024 11.35383999841118" fill="#9bff22" stroke="none" /><path d="M 80.28708602549916 92.7611449362534 l -12.988502486196824 -4.769558022437015 a34.83654149573998,34.83654149573998 0 0,0 0.2109590076325371,-0.559593831183143 l 12.90471279474985 4.991820133814303" fill="#ff2803" stroke="none" /><path d="M 80.83023694016515 91.42560881287825 l -30.384891085374086 -13.59077530227596 a54.28589460397602,54.28589460397602 0 0,0 0.3877965490399044,-0.847405445786498 l 30.147110071479137 14.110369730277128" fill="#acff21" stroke="none" /><path d="M 80.9802524753101 91.09779779509293 l -11.991623715471894 -5.612685391418218 a34.24013884506154,34.24013884506154 0 0,0 0.2537369435535447,-0.5302126228556941 l 11.893507513958447 5.817710516338999" fill="#ff1e03" stroke="none" /><path d="M 81.29705330413844 90.45014215332179 l -17.953412385235353 -9.167140287029069 a41.15840959293152,41.15840959293152 0 0,0 0.3267035606174385,-0.6264971549630906 l 17.793400755642978 9.473983685096647" fill="#ff910d" stroke="none" /><path d="M 81.46374523516351 90.13048839642627 l -20.179892375729217 -10.7446560531175 a43.862101609340485,43.862101609340485 0 0,0 0.35957451274723706,-0.6615766037335074 l 19.99247251336663 11.089487490325627" fill="#ffbc11" stroke="none" /><line stroke="#e1ed5e" stroke-width="0.3" x1="26.387840678322718" x2="22.05771365940052" y1="57.5" y2="55.0" /><path d="M 25.521815274538284 57.0 a86.0,86.0 0 0,1 29.574782752854787,-30.346332500585742" fill="none" id="id35" stroke="none" /><text fill="#e1ed5e" style="font-size:6.75px; font-family:Arial;" text-anchor="middle"><textPath startOffset="21.40746469413373" xlink:href="#id35">November</textPath></text><path d="M 81.99639281039701 89.18935116829357 l -11.907718734429746 -7.150242963476387 a34.889555064689176,34.889555064689176 0 0,0 0.3127300937653379,-0.5108211055867129 l 11.783220676209016 7.353601185187641" fill="#ff2904" stroke="none" /><path d="M 82.18462484594161 88.88188828441811 l -45.15402121722845 -28.179448816520583 a74.22562322499212,74.22562322499212 0 0,0 0.6838735677180123,-1.0751628368331239 l 44.663629957884545 28.95042532803238" fill="#3effb9" stroke="none" /><path d="M 82.78059297857968 87.97951657250589 l -32.047984415379304 -22.37198209383411 a60.084253707794254,60.084253707794254 0 0,0 0.5976520674120357,-0.840672478833954 l 31.659217249437294 22.918831799377582" fill="#60ff29" stroke="none" /><path d="M 83.2033758604659 87.39550010848427 l -20.740041103817283 -15.563713498106999 a46.93026191227517,46.93026191227517 0 0,0 0.489075953416472,-0.6402161225711711 l 20.469813173046504 15.917450533919057" fill="#ffea16" stroke="none" /><path d="M 83.42222388311158 87.10902102172516 l -20.197789077723623 -15.705922952072955 a46.5856737141054,46.5856737141054 0 0,0 0.4963228124297323,-0.6270876599178907 l 19.92519983465233 16.050330555905525" fill="#ffe515" stroke="none" /><path d="M 83.8745106332314 86.54754324733833 l -20.506696796490214 -17.107415813577326 a47.70558535815715,47.70558535815715 0 0,0 0.5299986864349268,-0.6243371199576075 l 20.210003546548172 17.45691971598449" fill="#fff617" stroke="none" /><path d="M 84.10781606972428 86.27271002978789 l -20.77167113890881 -17.942074804865445 a48.44777532344588,48.44777532344588 0 0,0 0.5490492620380972,-0.6247172726164671 l 20.460610812912122 18.296004355293213" fill="#feff18" stroke="none" /><path d="M 84.83555147118756 85.47280134310135 l -30.496380711303797 -29.214842865388164 a63.23193436415273,63.23193436415273 0 0,0 0.7576185368946105,-0.7773833614041392 l 29.99037537325838 29.734048918860033" fill="#3aff2e" stroke="none" /><path d="M 85.34317274990677 84.96080404539775 l -11.137153681989425 -11.427700807409972 a36.95708425370779,36.95708425370779 0 0,0 0.45814027968735227,-0.43888802438808594 l 10.939340916436771 11.617200962103626" fill="#ff4c07" stroke="none" /><path d="M 85.60350026404147 84.71141617570332 l -17.790057736198676 -18.892424820430985 a46.95014200063112,46.95014200063112 0 0,0 0.5915052288547306,-0.5474884091676206 l 17.46312273602999 19.195030975730973" fill="#ffea16" stroke="none" /><path d="M 85.86807049272753 84.46653392183569 l -18.136496467679766 -19.935186664529585 a47.950773114547175,47.950773114547175 0 0,0 0.6136214155588312,-0.5487040535701202 l 17.791610025297544 20.243586247983107" fill="#fff917" stroke="none" /><path d="M 87.54013794807813 83.09580414077388 l -7.8635923331788415 -10.668473246592688 a34.25339223729883,34.25339223729883 0 0,0 0.47631623773334175,-0.3448162236581145 l 7.679295085071532 10.80189024162388" fill="#ff1e03" stroke="none" /><path d="M 88.12776184653039 82.6780497279521 l -11.23910207018265 -16.39818580503115 a40.880088355948246,40.880088355948246 0 0,0 0.5822564842946268,-0.3917681479147022 l 10.955949297791033 16.58870362700296" fill="#ff8d0c" stroke="none" /><path d="M 89.03521579738668 82.08984904055464 l -32.89435260783996 -53.73045287833607 a84.0,84.0 0 0,0 1.236268973770263,-0.7423439978563064 l 31.967150877512267 54.287210876728295" fill="#4dd2ff" stroke="none" /><line stroke="#e1ed5e" stroke-width="0.3" x1="56.869717070023135" x2="54.33264160355391" y1="26.7553504044142" y2="22.446841604673864" /><path d="M 56.362301976729285 25.89364864446614 a86.0,86.0 0 0,1 42.16139366436587,-11.88097634709845" fill="none" id="id36" stroke="none" /><text fill="#e1ed5e" style="font-size:6.75px; font-family:Arial;" text-anchor="middle"><textPath startOffset="22.145653131862474" xlink:href="#id36">December</textPath></text><path d="M 89.65649057296885 81.72400993836675 l -12.383488408379996 -21.880437454666012 a46.14168507415589,46.14168507415589 0 0,0 0.6926873518046884,-0.384221997424741 l 12.006056868419204 22.0897923675239" fill="#ffde14" stroke="none" /><path d="M 90.28995756902619 81.37971332152246 l -12.17049180682487 -23.338522779082606 a47.32123698327548,47.32123698327548 0 0,0 0.7235029061985854,-0.3694257390673061 l 11.768061678912703 23.544006469822747" fill="#fff016" stroke="none" /><path d="M 90.93487009805054 81.0573650232925 l -4.9745222150489425 -10.394838190121275 a32.523824550331334,32.523824550331334 0 0,0 0.505685513511695,-0.23668635388191084 l 4.795347987665724 10.478700775573728" fill="#ff0000" stroke="none" /><path d="M 91.26138138417902 80.90454125486306 l -11.030127631203506 -24.102819495281725 a47.506784474597666,47.506784474597666 0 0,0 0.744468859238901,-0.3329914514759599 l 10.614745369108988 24.28861469766753" fill="#fff316" stroke="none" /><path d="M 91.92203290615298 80.6158196554323 l -9.706815617977117 -23.2928238409952 a46.23445881981698,46.23445881981698 0 0,0 0.7352281553405787,-0.2990108901376727 l 9.305533001446097 23.456021987712166" fill="#ffe015" stroke="none" /><path d="M 92.592206182469 80.34994680014964 l -8.924883810455457 -23.674314647216374 a46.30072578100347,46.30072578100347 0 0,0 0.746127042408522,-0.27398818490882304 l 8.517167616392808 23.82403368113392" fill="#ffe115" stroke="none" /><path d="M 93.61358852112211 79.99465700312896 l -9.107034860539347 -28.527656990489174 a50.94603976017672,50.94603976017672 0 0,0 0.8354164766434282,-0.2588141599692446 l 8.615977751024303 28.67978773826506" fill="#daff1c" stroke="none" /><path d="M 94.30408787586887 79.78721728523814 l -12.531366150029108 -44.46939762932146 a67.20132533922373,67.20132533922373 0 0,0 1.1130414683248488,-0.303364401667491 l 11.766143280769581 44.6779625251331" fill="#34ff5b" stroke="none" /><path d="M 95.70440661134978 79.44403061299748 l -5.146850140960823 -24.629541105222014 a46.161565162511835,46.161565162511835 0 0,0 0.7770607389685125,-0.15543391064893483 l 4.723292916461334 24.714264412533815" fill="#ffdf14" stroke="none" /><path d="M 96.05791012581881 79.37332000966035 l -8.21133962116441 -42.9651986797829 a64.74282107920479,64.74282107920479 0 0,0 1.093429994700646,-0.1992593691040076 l 7.472574892912724 43.099826222818265" fill="#30ff38" stroke="none" /><path d="M 96.76829788921471 79.25015418208739 l -4.617591403482434 -29.648249246925953 a51.00568002524456,51.00568002524456 0 0,0 0.8663069303053484,-0.12731728583732538 l 4.107959367569401 29.723147606062167" fill="#d9ff1c" stroke="none" /><path d="M 97.48249496171623 79.15144685158666 l -5.1033298724944745 -42.26289221376059 a63.56989586620385,63.56989586620385 0 0,0 1.0845148298969818,-0.12152214877141956 l 4.377079140996694 42.34427012303898" fill="#36ff2e" stroke="none" /><path d="M 98.5590905019552 79.04949213459386 l -2.679937072097226 -38.9656968629548 a60.05774692331966,60.05774692331966 0 0,0 1.0291485442168835,-0.06191102081880644 l 2.0106441757478595 39.0059598615983" fill="#61ff29" stroke="none" /><path d="M 99.63950707515114 79.00309439819443 l -0.6657004090298244 -38.77371144896376 a59.77942568633638,59.77942568633638 0 0,0 1.026193333878667,-0.008808635567055011 l 9.4982199079089e-15 38.77942568633638" fill="#64ff29" stroke="none" /></svg>